<svg xmlns="http://www.w3.org/2000/svg" stroke-width="1" fill="#001f54"  viewBox="0 0 48 48"><path d="M44.489,31.07a.5.5,0,0,0-.592-.385,18.612,18.612,0,0,0-3.572,1.294c-.357-.395-.7-.79-1.028-1.184-.12-.145-.234-.29-.349-.435q-.437-.546-.834-1.09c-.1-.136-.2-.272-.3-.408-.338-.476-.659-.95-.956-1.42-.042-.066-.078-.132-.119-.2q-.384-.617-.721-1.221c-.082-.144-.159-.287-.237-.43q-.281-.521-.531-1.028c-.058-.118-.12-.238-.176-.355q-.314-.657-.582-1.29c-.039-.093-.073-.183-.111-.276q-.207-.5-.385-.987c-.048-.129-.094-.257-.139-.385-.108-.306-.209-.6-.3-.9-.028-.089-.06-.182-.087-.27q-.168-.549-.3-1.057c-.024-.092-.045-.179-.067-.269-.064-.252-.123-.5-.175-.732-.022-.1-.044-.2-.064-.295-.051-.239-.1-.468-.135-.685-.009-.053-.021-.112-.031-.164-.039-.23-.071-.437-.1-.637l4.382,5.873a.508.508,0,0,0,.463.2.5.5,0,0,0,.4-.306c.061-.148,1.468-3.637.654-6.013a5.712,5.712,0,0,0-.654-1.331l.008,0a20.548,20.548,0,0,1,3.686,2.328.5.5,0,0,0,.315.112.5.5,0,0,0,.5-.545c-.019-.209-.508-5.133-4.851-6.788a6.358,6.358,0,0,0-2.79-.457A17.542,17.542,0,0,1,38.8,7.019a.5.5,0,0,0,.136-.848c-1.283-1.077-3.6-1.256-5.624-.436a4.948,4.948,0,0,0-2.641,2.246A5.363,5.363,0,0,0,28.44,5.842,5.348,5.348,0,0,0,24.1,5.9a.5.5,0,0,0-.184.808L26.3,9.233a5.121,5.121,0,0,0-1.57.1c-2.89.649-3.835,2.028-4.378,3.293a.5.5,0,0,0,.045.477.467.467,0,0,0,.427.22c.022,0,1.362-.033,2.729,0h0c.439.011.877.029,1.279.058a5.915,5.915,0,0,0-.772.838,6.121,6.121,0,0,0-.471,5.882.5.5,0,0,0,.35.224.48.48,0,0,0,.4-.116l5.259-4.541a34.913,34.913,0,0,0,.99,5.141l0,.013a41.429,41.429,0,0,0,5.905,13.336,30.176,30.176,0,0,0-2.764,2.108H27.145A9.659,9.659,0,0,0,27.87,32.6a9.81,9.81,0,1,0-18.9,3.666H4a.5.5,0,0,0,0,1H9.717l.014,0c.005,0,.011,0,.016,0H26.334c.012,0,.023,0,.035,0h6.258a33.785,33.785,0,0,0-4.142,4.717.5.5,0,1,0,.808.588c6.59-9.059,14.73-10.891,14.812-10.908A.5.5,0,0,0,44.489,31.07ZM9.25,32.6a8.81,8.81,0,0,1,17.62,0,8.637,8.637,0,0,1-.815,3.666h-16A8.747,8.747,0,0,1,9.25,32.6Zm24.9-4.579a11.321,11.321,0,0,0,1.534-.58c.43.705.887,1.418,1.408,2.142a9.425,9.425,0,0,1-1.736.9C34.922,29.687,34.521,28.861,34.146,28.021Zm-1.3-3.232a7.884,7.884,0,0,0,1.25-.264q.476,1,1.07,2.051a10.54,10.54,0,0,1-1.42.521C33.425,26.33,33.121,25.558,32.846,24.789Zm-1.157-3.681c.393-.02.723-.057,1-.1.269.817.595,1.684.993,2.6a7.484,7.484,0,0,1-1.164.22C32.205,22.9,31.929,21.986,31.689,21.108Zm.694-1.076c-.3.04-.619.065-.954.076-.206-.825-.377-1.6-.513-2.324.106,0,.218.011.321.011.209,0,.408,0,.592-.011C31.962,18.454,32.143,19.207,32.383,20.032Zm-3.814-4.8v-.984a.5.5,0,0,0-1,0v1.847l-.757.654v-1.76a.5.5,0,1,0-1,0v2.624L24.207,19a5.362,5.362,0,0,1,.649-4.176,5.149,5.149,0,0,1,4.8-1.9.5.5,0,0,0,.177-.984,6.538,6.538,0,0,0-3.749.585,10.242,10.242,0,0,0-1.071-.13l.863-.613a.5.5,0,0,0-.58-.816l-1.9,1.354c-.659-.015-1.293-.016-1.77-.011a4.71,4.71,0,0,1,3.319-2,4.742,4.742,0,0,1,2.622.227.448.448,0,0,0,.091.032,8.106,8.106,0,0,1,1.492.746.5.5,0,0,0,.537-.844A9.139,9.139,0,0,0,28.05,9.64L27.539,9.1l.677-.209a.5.5,0,0,0-.3-.956l-1.145.353-.442-.47.134-.044a.5.5,0,0,0-.312-.95l-.578.19-.394-.42a4.01,4.01,0,0,1,2.825.153,5.443,5.443,0,0,1,2.477,3.227.5.5,0,0,0,.953-.306c-.038-.116-.088-.257-.147-.413a3.512,3.512,0,0,1,2.392-2.589,5.477,5.477,0,0,1,3.826-.172,19.835,19.835,0,0,0-2.463,1.363L34.1,7.5a.5.5,0,0,0-.346.939l.334.123a5.254,5.254,0,0,0-1.161,1.282,4.653,4.653,0,0,0-1.375,1.088.5.5,0,0,0,.762.649c.646-.759,2.135-1.88,4.83-.854A6.85,6.85,0,0,1,41.1,15.443a19.211,19.211,0,0,0-2.669-1.58L37.14,11.83a.5.5,0,1,0-.844.536l.577.909a5.074,5.074,0,0,0-.637-.125,5.406,5.406,0,0,0-.975-.446l-.4-1.114a.5.5,0,1,0-.942.335l.174.49a7.56,7.56,0,0,0-2.258-.007.5.5,0,0,0,.187.983c.173-.033,4.258-.751,5.526,2.95a8.087,8.087,0,0,1-.335,4.446l-1.285-1.723.624-2.8a.5.5,0,0,0-.977-.218l-.436,1.956-.681-.912.421-2a.5.5,0,1,0-.978-.205l-.24,1.14-1.332-1.785c-.005-.007-.014-.008-.02-.014a.482.482,0,0,0-.217-.154.341.341,0,0,0-.046-.01.5.5,0,0,0-.117-.023.471.471,0,0,0-.124.025c-.011,0-.022,0-.033,0s-.008.007-.013.009a.5.5,0,0,0-.214.157c-.012.016-.021.03-.032.047a.485.485,0,0,0-.084.262,16.577,16.577,0,0,0,.218,2.248c-.273.008-.581.008-.908,0a16.152,16.152,0,0,1-.212-2.161.5.5,0,0,0-.828-.373Zm7.277,16.125a10.4,10.4,0,0,0,1.852-.978c.522.682,1.085,1.368,1.7,2.055-.647.332-1.337.719-2.067,1.177A24.662,24.662,0,0,1,35.846,31.356ZM6.9,21.411v.956a.5.5,0,0,1-1,0v-.956a.5.5,0,0,1,1,0Zm0-2.387a.5.5,0,0,1-1,0v-.957a.5.5,0,0,1,1,0Zm.994.688a.5.5,0,0,1,0,1H7.585a.5.5,0,0,1,0-1Zm-2.69,0a.5.5,0,0,1,0,1H4.9a.5.5,0,0,1,0-1ZM25.785,38.766a.5.5,0,0,1-.5.5H10.834a.5.5,0,1,1,0-1H25.285A.5.5,0,0,1,25.785,38.766Zm-1.569,2a.5.5,0,0,1-.5.5H12.405a.5.5,0,0,1,0-1H23.716A.5.5,0,0,1,24.216,40.766ZM3.5,11.741A2.343,2.343,0,0,1,5.34,9.455a3.405,3.405,0,0,1,3.4-3.364,3.362,3.362,0,0,1,3.107,2.028,2.986,2.986,0,0,1,2.6,4.028h3a.5.5,0,0,1,0,1H13.6a.5.5,0,0,1-.391-.812A1.959,1.959,0,0,0,13.64,11.1a2,2,0,0,0-2-1.99.548.548,0,0,1-.618-.344A2.367,2.367,0,0,0,8.741,7.091a2.4,2.4,0,0,0-2.4,2.4,2.1,2.1,0,0,0,.025.332.5.5,0,0,1-.5.578,1.345,1.345,0,1,0-.03,2.69.5.5,0,0,1,0,1A2.348,2.348,0,0,1,3.5,11.741Z"/></svg>