<?xml version="1.0" encoding="UTF-8"?>
<svg width="297mm" height="210mm" version="1.1" viewBox="0 0 1052.3622 744.09448" xmlns="http://www.w3.org/2000/svg">
 <defs>
  <filter id="a" x="-.048643" y="-.031721" width="1.0973" height="1.0634" color-interpolation-filters="sRGB">
   <feGaussianBlur stdDeviation="6.4857087"/>
  </filter>
 </defs>
 <g transform="translate(0 -308.27)">
  <rect y="308.27" width="1052.4" height="744.09" fill="#171f22" fill-rule="evenodd"/>
  <path transform="translate(0 308.27)" d="m155.71 253.38c-13.211-0.04216-24.514 1.8337-32.143 7.1426s-1.0383 10.648-12.393 19.184c-0.00436 0.00328-0.00931 0.00649-0.01367 0.00977-3.3283 1.1722-5.9894 2.6253-9.7891 5.0195-14.079 5.4206-35.452 8.9412-49.949 12.93-18.545 5.102-51.428 12.857-51.428 12.857v25s27.272-3.6547 61.203-14.572c0.005146-0.00165 0.012429-0.0042 0.017578-0.00586-3.8122 4.605-7.1919 9.1076-9.793 13.148-9.6184 14.943-7.2758 26.288-15.713 40-5.3545 8.7022-18.257 22.426-27 31.324-5.0721-5.8442-8.7148-9.9824-8.7148-9.9824v212.94s0.95497-1.4331 1.0059-1.5098c2.693 1.6496 21.543 13.377 32.566 25.795 5.4524 6.1424 11.232 14.302 16.695 23.143-0.091222 0.14508-0.17559 0.28398-0.26758 0.42969-2.8789 4.5605-7.4051 10.285-12.58 16.312l-37.42-32.742v36.43l21.338 14.021c-11.334 11.963-21.338 21.691-21.338 21.691v32.143h32.857s4.3794-5.0292 10.465-12.629l5.9629 12.629h72.858s-3.7053-26.107-8.5703-47.143c-0.72057-3.1157-1.5643-6.6764-2.4629-10.418 1.7778-17.81 3.9664-38.546 2.4629-53.867-1.614-16.447-2.3228-19.736-10-40 1.4022-30.897-7.6361-60.587-18.572-87.143-1.3544-3.2889-3.6825-7.4568-6.7129-12.227 2.5681-3.1458 5.2582-6.2176 8.1406-9.2031 16.011-16.583 38.013-35.139 54.287-42.143s29.71-5.1445 37.143-5.7129 5.2999 0.64637 7.1426 0 3.0411-1.4692 3.5723-2.8574 0.46392-1.9965-0.71485-4.2871-4.5817-3.66-7.8574-7.8555-8.733-9.2331-10.715-17.857 0.85779-22.335 2.8574-32.143 9.9683-20.011 8.5723-26.43-4.5579-7.1189-7.8574-8.5703-4.8184-0.61652-10 0-14.198 4.4873-20.715 5-12.512 0.23739-17.857-1.4297c-4.1022-1.2794-1.9398-5.9532-6.8242-7.4961 15.644-11.655 34.941-23.287 48.254-28.219 18.489-6.8489 24.997-3.3475 41.428-5.7129s47.185-2.4709 57.143-8.5723c11.255-6.8476 8.2275-20.097-14.285-25.715-10.153-2.8458-29.022-2.323-49.107-0.36719-0.00243-0.00184-0.00342-0.00401-0.00586-0.00586 0 0-31.961-10.298-45.172-10.34zm93.814 70.227c-7.5267-0.09775-15.01 1.3005-22.387 3.3438-13.114 3.6325-27.602 11.316-35.715 21.43s-9.2295 24.428-11.428 34.285-4.8916 16.37-2.8574 24.285 8.8262 13.069 14.285 20 11.633 9.0243 18.572 21.43 4.9845 5.3762 17.143 54.285 44.285 241.43 44.285 241.43h48.572s-14.808-125.23-20-171.43-13.03-80.942-11.428-105.71 6.8244-30.014 10-41.428 7.6302-15.703 8.5703-27.143 1.0435-27.187-5.7148-40-20.847-26.203-34.285-31.43c-5.879-2.2868-11.759-3.2677-17.613-3.3438zm-184.41 187.71c1.9316 4.5814 3.6474 9.341 5.1094 14.213-2.4741-4.0501-4.896-7.7904-7.2012-11.059 0.69654-1.0518 1.3927-2.1147 2.0918-3.1543zm-13.381 20.332c11.445 14.894 14.078 22.258 20.768 40.203 0.86526 2.3212 1.7507 4.7474 2.6406 7.2598-0.16027 2.0457-0.34462 4.0812-0.56445 6.0957-1.3976-2.1213-2.8762-4.3256-4.5801-6.8223-7.1036-10.409-17.289-23.578-27.029-33.879 0.90809-1.3159 1.9337-2.8164 2.7441-3.9785 2.0897-2.9966 4.0763-5.9504 6.0215-8.8789zm-24.453 35.941c7.9682 6.7851 15.959 14.226 21.289 20.795 7.1765 8.8452 13.8 18.289 19.756 28.752-1.7715 6.0907-3.8211 11.712-6.3613 17.34-0.41094-0.59571-0.84606-1.2128-1.252-1.8066-8.6796-12.699-14.817-22.459-25-32.143-4.8006-4.565-12.987-10.351-20.326-15.225 4.0568-6.07 7.3723-10.999 11.895-17.713zm59.092 92.098c0.59285 2.2445 1.1667 4.6303 1.7207 7.1445-0.29153 3.2946-0.63976 6.62-1.0273 9.9512-1.3284-3.1398-2.7179-6.1129-4.1484-8.959 1.1651-2.656 2.3192-5.3686 3.4551-8.1367zm-16.592 34.617c3.575 9.7051 6.9124 21.698 9.4316 31.576-0.66765 3.4988-1.2589 6.2439-1.7949 8.5312l-4.5625-11.027-11.176-16.521c2.8582-4.1684 5.6216-8.4015 8.1016-12.559z" fill="none" filter="url(#a)" opacity=".235" stroke="#fff" stroke-linejoin="round" stroke-width="20"/>
  <path d="m378.3 1052.4s-9.5821-51.615-14.647-87.883c-5.0651-36.269-11.654-98.466-14.647-129.8s-5.0706-40.393-4.5457-58.084 4.2596-29.045 6.566-47.477 8.1954-44.536 7.0711-63.135-2.8983-25.172-11.112-46.972-24.23-45.577-40.931-68.812c-15.551-21.634-41.371-27.688-64.569-30.668s-82.433-16.727-123.89-18.903c-41.455-2.1761-117.6-31.3-117.6-31.3v583.04z" fill="#f9f9f9" fill-rule="evenodd" opacity=".099"/>
  <g fill="#fff" fill-rule="evenodd" opacity=".86">
   <g opacity="1">
    <path d="m0 703.7s74.064 83.531 85 110.09 19.974 56.246 18.571 87.143-16.069 66.864-28.571 92.143c-12.503 25.279-42.143 59.286-42.143 59.286h-32.857v-32.143s38.383-37.312 50-55.714 17.135-31.645 21.429-51.429 6.0451-45.261 2.1429-65.714-12.762-40.226-23.571-54.286-50-60.214-50-60.214z" opacity=".309"/>
    <path d="m0 793.08s39.71 31.254 51.429 46.429 14.323 22.497 21.075 40.61 14.742 42.324 16.346 68.297-6.3011 68.161-9.5638 85.379-5 18.571-5 18.571h28.571s6.0391-34.981 7.8572-53.571c1.818-18.59 4.4712-41.41 2.8571-57.857s-2.3228-19.736-10-40-26.667-58.752-40.946-78.781-29.972-32.036-40.482-42.648-22.143-21.429-22.143-21.429z" opacity=".309"/>
    <path d="m0 823.79s20.68 9.0741 32.857 19.286 27.5 29.443 37.143 43.571 13.513 20.367 21.429 40 17.278 57.535 22.143 78.571 8.5714 47.143 8.5714 47.143h-23.571s-5.2889-65.252-14.286-91.429-21.239-46.445-35.714-64.286-48.571-42.143-48.571-42.143z" opacity=".309"/>
    <path d="m0 883.79s25.531 15.316 35.714 25 16.32 19.443 25 32.143 18.591 25.696 26.429 44.286c7.8377 18.59 17.857 67.143 17.857 67.143h-21.429s-8.1367-37.642-16.429-56.429c-8.2919-18.786-21.715-41.643-33.571-55s-33.571-26.429-33.571-26.429z" opacity=".309"/>
    <path d="m0 948.08 40 35 32.857 48.571 8.5714 20.714h-32.143l-24.286-51.429-25-16.429z" opacity=".309"/>
   </g>
   <path d="m0 916.65s31.281-47.159 45.714-67.857 24.703-39.845 40.714-56.429c16.011-16.583 38.011-35.139 54.286-42.143s29.711-5.1459 37.143-5.7143 5.3002 0.64637 7.1429 0 3.0402-1.4689 3.5714-2.8571 0.46448-1.9952-0.71429-4.2857-4.5814-3.6617-7.8571-7.8571-8.7324-9.2329-10.714-17.857 0.85752-22.336 2.8572-32.143 9.9674-20.01 8.5714-26.429-4.5577-7.12-7.8572-8.5714-4.8184-0.61652-10 0-14.197 4.4873-20.714 5-12.512 0.23851-17.857-1.4286-0.0395-9.1044-13.571-7.8572c-13.532 1.2473-31.157 23.568-50 42.857s-60.714 74.286-60.714 74.286z" opacity=".309"/>
   <path d="m0 618.79s32.884-7.7551 51.429-12.857 48.398-9.4232 59.752-17.959 4.7623-13.875 12.391-19.184 42.932-13.184 56.143-13.142c13.211 0.0422 21.172 16.341 21.172 16.341 9.1037 6.8604-105.75 46.312-139.68 57.229s-61.203 14.572-61.203 14.572z" opacity=".309" stroke="#f9f9f9" stroke-linejoin="round"/>
   <path d="m0 722.36s27.277-26.288 35.714-40 6.0958-25.057 15.714-40 29.659-36.173 44.286-45.714c14.627-9.5409 12.993-8.5536 38.571-14.286s92.811-16.42 115.71-10c22.513 5.6178 25.54 18.867 14.286 25.714-9.958 6.1014-40.712 6.206-57.143 8.5714s-22.94-1.1346-41.429 5.7143-48.556 26.62-64.286 41.429-21.172 27.857-31.429 42.857-18.059 33.954-30 47.143-40 31.429-40 31.429z" opacity=".309" stroke="#f9f9f9" stroke-linejoin="round"/>
   <path d="m271.43 1052.4s-32.128-192.52-44.286-241.43-10.204-41.88-17.143-54.286-13.112-14.498-18.571-21.429-10.252-12.085-12.286-20-1.3411-14.429 0.85714-24.286 3.316-24.172 11.429-34.286 22.6-17.796 35.714-21.429 26.562-5.227 40 0 27.527 18.616 34.286 31.429 6.6544 28.56 5.7143 40-5.3959 15.729-8.5714 27.143-8.3979 16.656-10 41.429 6.2368 59.518 11.429 105.71 20 171.43 20 171.43z" opacity=".309"/>
  </g>
  <text x="712.85712" y="712.36218" fill="#000000" font-family="'open sans'" font-size="125px" letter-spacing="0px" stroke-width="1px" word-spacing="0px" style="line-height:125%" xml:space="preserve"><tspan x="712.85712" y="712.36218"/></text>
  <path d="m174.29 1052.4s5.6371-18.504 7.1429-42.857-4.2857-102.86-4.2857-102.86 15.226 84.137 17.143 108.57c1.9172 24.435 0 37.143 0 37.143z" fill-rule="evenodd" opacity=".309"/>
 </g>
</svg>
